# xmcd CD database file
#
# Track frame offsets:
#	150
#	14542
#	25892
#	38208
#	60148
#	78303
#	96427
#	113561
#
# Disc length: 1680 seconds
#
# Revision: 0
# Processed by: cddbd v1.5.2PL0 Copyright (c) Steve Scherf et al.
# Submitted via: CDex 1.51
#
DISCID=56068e08
DTITLE=Sugar House - Sugar House
DYEAR=2002
DGENRE=Blues
TTITLE0=He's My Lover
TTITLE1=Love Her with a Feeling
TTITLE2=Break on Through
TTITLE3=I'm Waiting for You
TTITLE4=Ain't Playing Straight
TTITLE5=You're Leaving
TTITLE6=All your Love ( I Miss Loving )
TTITLE7=The Cause
EXTD=YEAR: 2002
EXTT0=
EXTT1=
EXTT2=
EXTT3=
EXTT4=
EXTT5=
EXTT6=
EXTT7=
PLAYORDER=
